<?xml version="1.0" encoding="iso-8859-1"?>
<svg version="1.1" id="Layer_1" xmlns="http://www.w3.org/2000/svg" xmlns:xlink="http://www.w3.org/1999/xlink" x="0px" y="0px"
	 viewBox="0 0 512 512" style="enable-background:new 0 0 512 512;" xml:space="preserve">
<path style="fill:#F0C419;" d="M411.388,47.729h-13.555c-4.764,0-9.398,1.51-13.243,4.304l-80.037,58.212
	c-6.179,4.487-13.616,6.908-21.252,6.908H156.203v173.559h125.292c7.515,0,14.839,2.343,20.966,6.708l82.163,58.542
	c3.818,2.716,8.383,4.174,13.069,4.174h13.694c12.436,0,22.511-10.075,22.511-22.511V70.239
	C433.898,57.804,423.823,47.729,411.388,47.729"/>
<g>
	<path style="fill:#F18D46;" d="M156.203,290.712H34.677C15.525,290.712,0,275.187,0,256.035V151.83
		c0-19.152,15.525-34.677,34.677-34.677h121.526V290.712z"/>
	<polygon style="fill:#F18D46;" points="164.881,464.271 95.458,464.271 190.915,290.712 260.339,290.712 	"/>
</g>
<path style="fill:#556080;" d="M171.824,325.424h-27.353c-12.696,0-22.979,10.283-22.979,22.979v63.8l3.185-1.059L171.824,325.424z"
	/>
<polygon style="fill:#F18D46;" points="338.441,323.055 373.144,347.778 373.144,60.364 338.441,85.599 "/>
<g>
	<path style="fill:#D8DCDC;" d="M468.61,108.475c-2.222,0-4.443-0.85-6.135-2.543c-3.393-3.393-3.393-8.878,0-12.271l26.034-26.034
		c3.393-3.393,8.878-3.393,12.271,0c3.393,3.393,3.393,8.878,0,12.271l-26.034,26.034
		C473.053,107.624,470.832,108.475,468.61,108.475"/>
	<path style="fill:#D8DCDC;" d="M494.644,342.78c-2.222,0-4.443-0.85-6.135-2.543l-26.034-26.034c-3.393-3.393-3.393-8.878,0-12.271
		c3.393-3.393,8.878-3.393,12.271,0l26.034,26.034c3.393,3.393,3.393,8.878,0,12.271C499.087,341.929,496.866,342.78,494.644,342.78
		"/>
	<path style="fill:#D8DCDC;" d="M503.322,212.61H468.61c-4.799,0-8.678-3.879-8.678-8.678c0-4.799,3.879-8.678,8.678-8.678h34.712
		c4.799,0,8.678,3.879,8.678,8.678C512,208.731,508.121,212.61,503.322,212.61"/>
</g>
<polygon style="fill:#FFFFFF;" points="199.593,247.322 295.051,247.322 295.051,160.542 199.593,160.542 "/>
<path style="fill:#F0C419;" d="M260.339,212.61h-26.034c-4.79,0-8.678-3.879-8.678-8.678c0-4.799,3.888-8.678,8.678-8.678h26.034
	c4.79,0,8.678,3.879,8.678,8.678C269.017,208.731,265.129,212.61,260.339,212.61"/>
<g>
</g>
<g>
</g>
<g>
</g>
<g>
</g>
<g>
</g>
<g>
</g>
<g>
</g>
<g>
</g>
<g>
</g>
<g>
</g>
<g>
</g>
<g>
</g>
<g>
</g>
<g>
</g>
<g>
</g>
</svg>
